{
  "accessors": [
    {
      "bufferView": 2,
      "componentType": 5126,
      "count": 5651,
      "max": [
        7.1340227127075195,
        -19.697454452514648,
        5.5726189613342285
      ],
      "min": [
        -5.8893237113952637,
        -31.563018798828125,
        -6.2655472755432129
      ],
      "type": "VEC3"
    },
    {
      "bufferView": 2,
      "byteOffset": 67812,
      "componentType": 5126,
      "count": 5651,
      "max": [
        0.9999728798866272,
        0.95776432752609253,
        0.99921995401382446
      ],
      "min": [
        -0.99916201829910278,
        -0.99971020221710205,
        -0.9972490668296814
      ],
      "type": "VEC3"
    },
    {
      "bufferView": 3,
      "componentType": 5126,
      "count": 5651,
      "max": [
        0.92202252149581909,
        0.98769748210906982,
        0.99771970510482788,
        1
      ],
      "min": [
        -0.99954921007156372,
        -0.99971520900726318,
        -0.99993675947189331,
        1
      ],
      "type": "VEC4"
    },
    {
      "bufferView": 1,
      "componentType": 5126,
      "count": 5651,
      "max": [
        0.99804002046585083,
        0.45577999949455261
      ],
      "min": [
        0.34053999185562134,
        0.0026599999982863665
      ],
      "type": "VEC2"
    },
    {
      "bufferView": 0,
      "componentType": 5125,
      "count": 29412,
      "max": [
        5650
      ],
      "min": [
        0
      ],
      "type": "SCALAR"
    },
    {
      "bufferView": 2,
      "byteOffset": 135624,
      "componentType": 5126,
      "count": 5016,
      "max": [
        7.0807704925537109,
        -19.570667266845703,
        4.8906459808349609
      ],
      "min": [
        -5.3856840133666992,
        -30.102367401123047,
        -9.1560678482055664
      ],
      "type": "VEC3"
    },
    {
      "bufferView": 2,
      "byteOffset": 195816,
      "componentType": 5126,
      "count": 5016,
      "max": [
        0.99963140487670898,
        0.99997055530548096,
        0.99757689237594604
      ],
      "min": [
        -0.99989479780197144,
        -0.9997551441192627,
        -0.99726039171218872
      ],
      "type": "VEC3"
    },
    {
      "bufferView": 3,
      "byteOffset": 90416,
      "componentType": 5126,
      "count": 5016,
      "max": [
        0.99982219934463501,
        0.99999630451202393,
        0.99973857402801514,
        1
      ],
      "min": [
        -0.99965691566467285,
        -0.99986761808395386,
        -0.990550696849823,
        1
      ],
      "type": "VEC4"
    },
    {
      "bufferView": 1,
      "byteOffset": 45208,
      "componentType": 5126,
      "count": 5016,
      "max": [
        0.73370999097824097,
        0.93478000164031982
      ],
      "min": [
        0.0019499999471008778,
        0.0019499999471008778
      ],
      "type": "VEC2"
    },
    {
      "bufferView": 0,
      "byteOffset": 117648,
      "componentType": 5125,
      "count": 27150,
      "max": [
        5015
      ],
      "min": [
        0
      ],
      "type": "SCALAR"
    }
  ],
  "asset": {
    "extras": {
      "author": "Radju (https://sketchfab.com/Radju)",
      "license": "SKETCHFAB Standard (https://sketchfab.com/licenses)",
      "source": "https://sketchfab.com/models/40fd8c222b664895a62d57bedd9c2b78",
      "title": "Adidas sneaker shoe low poly 3D model"
    },
    "generator": "Sketchfab-3.20.7",
    "version": "2.0"
  },
  "bufferViews": [
    {
      "buffer": 0,
      "byteLength": 226248,
      "byteOffset": 0,
      "name": "floatBufferViews",
      "target": 34963
    },
    {
      "buffer": 0,
      "byteLength": 85336,
      "byteOffset": 226248,
      "byteStride": 8,
      "name": "floatBufferViews",
      "target": 34962
    },
    {
      "buffer": 0,
      "byteLength": 256008,
      "byteOffset": 311584,
      "byteStride": 12,
      "name": "floatBufferViews",
      "target": 34962
    },
    {
      "buffer": 0,
      "byteLength": 170672,
      "byteOffset": 567592,
      "byteStride": 16,
      "name": "floatBufferViews",
      "target": 34962
    }
  ],
  "buffers": [
    {
      "byteLength": 738264,
      "uri": "scene.bin"
    }
  ],
  "images": [
    {
      "uri": "textures/defaultMat_metallicRoughness.png"
    },
    {
      "uri": "textures/defaultMat_normal.jpg"
    },
    {
      "uri": "textures/defaultMat_baseColor.jpg"
    }
  ],
  "materials": [
    {
      "doubleSided": true,
      "emissiveFactor": [
        0,
        0,
        0
      ],
      "name": "defaultMat",
      "normalTexture": {
        "index": 1,
        "scale": 1,
        "texCoord": 0
      },
      "occlusionTexture": {
        "index": 0,
        "strength": 1,
        "texCoord": 0
      },
      "pbrMetallicRoughness": {
        "baseColorFactor": [
          1,
          1,
          1,
          1
        ],
        "baseColorTexture": {
          "index": 2,
          "texCoord": 0
        },
        "metallicFactor": 0,
        "roughnessFactor": 1
      }
    }
  ],
  "meshes": [
    {
      "primitives": [
        {
          "attributes": {
            "NORMAL": 1,
            "POSITION": 0,
            "TANGENT": 2,
            "TEXCOORD_0": 3
          },
          "indices": 4,
          "material": 0,
          "mode": 4
        }
      ]
    },
    {
      "primitives": [
        {
          "attributes": {
            "NORMAL": 6,
            "POSITION": 5,
            "TANGENT": 7,
            "TEXCOORD_0": 8
          },
          "indices": 9,
          "material": 0,
          "mode": 4
        }
      ]
    }
  ],
  "nodes": [
    {
      "children": [
        1
      ],
      "name": "RootNode (gltf orientation matrix)",
      "rotation": [
        -0.70710678118654746,
        -0,
        -0,
        0.70710678118654757
      ]
    },
    {
      "children": [
        2
      ],
      "matrix": [
        -0.031281135976314545,
        -0.99951064586639404,
        0,
        0,
        -0.68787252902984619,
        0.021527968347072601,
        0.72551220655441284,
        0,
        -0.72515714168548584,
        0.022694846615195274,
        -0.68820929527282715,
        0,
        -18.245182037353516,
        -24.354988098144531,
        15.524937629699707,
        1
      ],
      "name": "RootNode (model correction matrix)"
    },
    {
      "children": [
        3,
        4
      ],
      "name": "Radju205_obj.OBJ.cleaner.materialmerger.gles"
    },
    {
      "mesh": 0,
      "name": ""
    },
    {
      "mesh": 1,
      "name": ""
    }
  ],
  "samplers": [
    {
      "magFilter": 9729,
      "minFilter": 9987,
      "wrapS": 10497,
      "wrapT": 10497
    }
  ],
  "scene": 0,
  "scenes": [
    {
      "name": "OSG_Scene",
      "nodes": [
        0
      ]
    }
  ],
  "textures": [
    {
      "sampler": 0,
      "source": 0
    },
    {
      "sampler": 0,
      "source": 1
    },
    {
      "sampler": 0,
      "source": 2
    }
  ]
}

