<svg width="18" height="15" xmlns="http://www.w3.org/2000/svg"><path d="M4 4.5H.993c-.548 0-.938.445-.87.993L.44 8.025a.57.57 0 00.551.492h.2l.716 5.73a.884.884 0 00.847.753h12.494a.886.886 0 00.847-.753l.716-5.73h.2a.57.57 0 00.551-.492l.315-2.532c.069-.548-.32-.993-.87-.993H14V1.311a.756.756 0 00-.752-.757H4.752A.752.752 0 004 1.311V4.5zM5.49 2h7.001v2.517h-7V2zM1.86 6.016h14.326l-.134.992H2.009l-.149-.992zm.892 2.5h12.526l-.633 5.012H3.308l-.556-5.013z" fill="#484847" fill-rule="evenodd"/></svg>