<svg id="Layer_1" xmlns="http://www.w3.org/2000/svg" width="21" height="17"><style>.st0{fill:#234d9e}</style><ellipse class="st0" cx="16.1" cy="14.5" rx="2.3" ry="2.5"/><ellipse class="st0" cx="4.5" cy="14.5" rx="2.3" ry="2.5"/><path class="st0" d="M16.4 4.8H20v3.5h-3.6V4.8zm0-4.8h-3.7l-4 4.6L7.6 6 6.2 4.8 3.6 2.6l1-1.4 2.7 2.3 3-3.5H4.8c-.9.6-1.5 1.6-1.6 2.6-.5 2.2 1.1 4.3 3.3 4.7 2.2.4 4.2-1 4.6-3.3V3l.9-1.1c.2.7.2 1.6.1 2.3-.4 2.8-3 4.7-5.9 4.3-2.7-.5-4.5-3.1-4.1-6 .1-.9.5-1.8 1.2-2.5H0v14h1.6c-.1-1.7 1.3-3 2.9-3.1h.1c1.7 0 3 1.4 3 3v.1h5.2c0-1.7 1.4-3 3-3s3 1.4 3 3h2V3.5h-4.6V0z"/></svg>