<svg width="18" height="18" xmlns="http://www.w3.org/2000/svg"><path d="M15.233 2.506c-.026.037-.647.957-.47.957.18 0-1.05.485-1.05.485l-.57.963v.485s-.256-.3-.375-.485c-.12-.18.17-.48.05-.48-.121 0 .084-.724.024-.968-.06-.24.133-.843.487-.964.355-.12-.233-.244.007-.484.235-.24-.712-.484-.947-.484s.06.125.001.484c-.06.364-.709-.604-.949-.484-.208.111-.793-1.12-.92-1.392A9.072 9.072 0 008.989 0C7.468 0 6.156.377 4.9 1.037l2.704.89v1.204s-.333.211-.117.437c.217.226-.117 1.036-.117 1.036s-.58.692-.58 0c0 0-.512-.692-.586-.692h-.581s-.302.736-.74.51c-.438-.225-.74.517-.74.517v.604l1.48.445h.58l.332.414.254.306s-1.035.693-1.325.619L4.143 8.549v.604s.012.452.158.6c.144.152.08 1.208.08 1.208l1.202.6-1.65-.6-.483-1.208V8.549l-.692-.6V6.748l-1.19-1.204s-.374-.678-.01-1.208c.099-.143.181-.432.257-.774A8.804 8.804 0 000 8.91c0 3.784 2.388 7.01 5.752 8.3l-.128-.23s-.73-.904-.582-1.204c.148-.3-.32-.978-.104-1.203.218-.226-.103-.605-.103-.605v-.599l1.369-.456H7.37l1.167 1.13s.655.414 1.162.566c.512.149 0 .582 0 .582s-1.093.82-1.162 1.198c-.074.373-.148 1.121 0 1.2.04.02-.011.096-.105.2.184.011.369.026.557.026 4.967 0 8.992-3.989 8.992-8.904a8.841 8.841 0 00-2.748-6.404zm.796 6.655c.018.035.096.069.086.099-.008.027.02-.016.016-.1-.088-.174-.436-.29-.436-.29l-.933.58h-1.42c.235-.692-.3-.82-.475-1.059-.18-.245.235-.836.475-1.016.235-.18.355-.448.47-.508.12-.06 0-.975 0-.975l.95-.49s.46.116.815-.003c.355-.12.335-.488.335-.488v1.932s.096 1.857.117 2.318z" fill-rule="evenodd"/></svg>