<svg xmlns="http://www.w3.org/2000/svg" width="20" height="22"><path fill="#5C5C5C" fill-rule="evenodd" d="M.721 8.39c1.987.002 3.973.002 5.96-.001.145 0 .297-.013.433-.061a.672.672 0 00.414-.68.658.658 0 00-.525-.632c-.144-.024-.294-.02-.44-.02l-3.929-.002c-.152 0-.303-.016-.478-.024 1.051-2.7 3.96-5.57 7.878-5.55 1.821.01 3.486.565 4.976 1.717 2.083 1.613 3.292 3.855 3.725 6.64.373 0 .71.001 1.047-.002.055 0 .11-.025.218-.05-.65-4.18-2.647-7.194-6.16-8.86C11.546-.223 9.174-.262 6.81.62c-2.372.884-4.168 2.594-5.472 4.97a5.478 5.478 0 01-.071-.053v-.48c0-1.341 0-2.683-.002-4.024 0-.162-.003-.33-.038-.485C1.151.21.925.037.608.047c-.31.008-.524.2-.582.549-.027.158-.024.324-.024.488v6.23c0 .114-.006.229.004.341.042.48.286.734.715.734zm19.274 6.041c-.002-.568-.259-.831-.765-.831h-5.88c-.131 0-.267 0-.395.027-.281.059-.466.302-.488.611-.022.317.12.594.393.693.15.055.317.066.476.066 1.327.005 2.653.004 3.98.004h.48c-.208.917-1.288 2.475-2.354 3.424-1.561 1.39-3.346 2.108-5.34 2.16-4.183.11-8.187-3.27-8.89-8.362H0a11.316 11.316 0 001.306 4.274c1.045 1.957 2.492 3.441 4.341 4.41 2.353 1.23 4.793 1.424 7.274.571 2.486-.854 4.37-2.598 5.76-5.05.043.187.055.347.055.506.001 1.344 0 2.69.003 4.036 0 .162 0 .33.03.489.05.272.262.48.526.52a.603.603 0 00.618-.379c.053-.136.08-.28.082-.427.005-2.25.008-4.496 0-6.742z"/></svg>