<svg width="17" height="19" xmlns="http://www.w3.org/2000/svg"><path d="M.613 7.264c1.689.002 3.377.002 5.066-.001.123 0 .252-.01.368-.05a.548.548 0 00.352-.556.544.544 0 00-.446-.517c-.123-.02-.25-.017-.374-.017l-3.34-.001c-.129 0-.258-.013-.406-.02.893-2.208 3.365-4.557 6.696-4.54 1.548.008 2.963.462 4.23 1.405 1.77 1.32 2.798 3.154 3.166 5.433.317 0 .603.001.89-.002.047 0 .094-.02.185-.04-.553-3.421-2.25-5.887-5.236-7.25C9.814.217 7.798.185 5.789.906c-2.017.723-3.543 2.122-4.652 4.066a4.64 4.64 0 01-.06-.043v-.393c0-1.097 0-2.195-.002-3.292 0-.133-.002-.27-.032-.397C.978.57.786.43.517.438.254.444.071.602.022.887c-.023.129-.02.265-.02.399v5.097c0 .094-.005.188.003.28.036.393.243.6.608.6zm16.383 4.943c-.002-.465-.22-.68-.65-.68h-4.998c-.112 0-.227 0-.336.022-.239.048-.396.247-.415.5-.019.259.102.486.334.567.127.045.27.054.405.054 1.128.004 2.255.003 3.382.003h.409c-.177.751-1.095 2.025-2.001 2.802-1.327 1.137-2.844 1.725-4.54 1.767-3.555.09-6.958-2.675-7.556-6.842H0a9.009 9.009 0 001.11 3.497c.888 1.602 2.118 2.816 3.69 3.608 2 1.007 4.074 1.166 6.183.468 2.113-.699 3.715-2.126 4.896-4.132.037.153.047.284.047.414.001 1.1 0 2.201.002 3.302 0 .133 0 .27.026.4a.532.532 0 00.447.426.515.515 0 00.525-.31.956.956 0 00.07-.35c.004-1.84.007-3.678 0-5.516z" fill="#727272" fill-rule="evenodd"/></svg>