<svg height="24" width="14" xmlns="http://www.w3.org/2000/svg"><g fill-rule="evenodd"><path d="M7.166 17.333c2.058 0 4.008-1.625 4-3.737-.006-1.763 0-7.799 0-9.859 0-2.112-1.942-3.737-4-3.737-2.057 0-4.008 1.625-4 3.737.009 1.873.006 8.352.006 9.859 0 2.112 1.937 3.737 3.994 3.737z"/><path d="M1.834 13.387c0 2.878 2.504 5.28 5.327 5.28 2.83 0 5.348-2.407 5.338-5.275A672.58 672.58 0 0112.496 12H13.5v1.387c.013 3.738-2.907 6.283-6.339 6.283C3.73 19.67.83 17.125.83 13.387V12h1.004v1.387z" fill-rule="nonzero"/><path d="M7.65 22.667h3.517v1h-8v-1H6.65v-4h1z"/></g></svg>