<svg width="21" height="21" xmlns="http://www.w3.org/2000/svg" xmlns:xlink="http://www.w3.org/1999/xlink"><defs><path d="M10.3 10.609l-7.2-7.2C5.087 1.418 7.487.425 10.3.425v10.183z" id="a"/><path d="M10.3 10.609H.117c0-2.812.994-5.213 2.982-7.2l7.2 7.2z" id="b"/><path d="M10.3 10.609l-7.2 7.2C1.11 15.821.116 13.421.116 10.61H10.3z" id="c"/><path d="M10.3 10.609v10.183c-2.812 0-5.212-.995-7.2-2.983l7.2-7.2z" id="d"/><path d="M10.3 10.609l7.2 7.2c-1.988 1.988-4.388 2.983-7.2 2.983V10.609z" id="e"/><path d="M10.3 10.609h10.183c0 2.812-.994 5.212-2.983 7.2l-7.2-7.2z" id="f"/><path d="M10.3 10.609l7.2-7.2c1.989 1.987 2.983 4.388 2.983 7.2H10.3z" id="g"/><path d="M10.3 10.609V.426c2.812 0 5.212.993 7.2 2.982l-7.2 7.2z" id="h"/></defs><g fill="none" fill-rule="evenodd"><use fill="#EA3E88" xlink:href="#a"/><use fill="#ED7D12" xlink:href="#b"/><use fill="#F6D222" xlink:href="#c"/><use fill="#BBD607" xlink:href="#d"/><use fill="#69C353" xlink:href="#e"/><use fill="#3099AA" xlink:href="#f"/><use fill="#4CC3D4" xlink:href="#g"/><use fill="#C1459A" xlink:href="#h"/></g></svg>