<svg width="78" height="28" xmlns="http://www.w3.org/2000/svg"><g fill="none" fill-rule="evenodd"><path d="M6.82 1.61L5.567 5.445l-4.036.006 3.26 2.377-1.239 3.84L6.82 9.3l3.264 2.365-1.245-3.836L12.1 5.45l-4.026-.006L6.82 1.61zm15.718.004l-1.251 3.831-4.036.006 3.26 2.377-1.239 3.84L22.54 9.3l3.257 2.365-1.237-3.837 3.259-2.377-4.036-.006-1.245-3.83zm15.994 0l-1.245 3.831-4.036.006 3.26 2.377-1.238 3.837L38.53 9.3l3.268 2.368-1.238-3.84 3.259-2.377-4.036-.006-1.251-3.83zM53.97 1.61l-1.253 3.835-4.026.006 3.26 2.378-1.245 3.836L53.97 9.3l3.268 2.368L56 7.828l3.259-2.377-4.036-.006L53.97 1.61zm16.725-.001l-1.254 3.836-4.03.006 3.263 2.378-1.246 3.837L70.695 9.3l3.27 2.367-1.239-3.84 3.255-2.377-4.032-.006-1.254-3.836z" stroke="#5C5C5C"/><path fill="#5C5C5C" d="M8.436 19.946l5.194.008-4.203 3.065 1.606 4.951-4.213-3.052-4.213 3.052 1.596-4.95L0 19.953l5.204-.008L6.82 15zm15.71 0l5.204.008-4.203 3.065 1.596 4.951-4.203-3.052-4.213 3.052 1.596-4.95-4.203-3.066 5.204-.008L22.54 15zm16 0l5.204.008-4.203 3.065 1.596 4.951-4.213-3.052-4.203 3.052 1.596-4.95-4.203-3.066 5.204-.008L38.53 15zM53.97 15l-1.616 4.946-5.194.008 4.203 3.065-1.606 4.951 4.213-3.052 4.213 3.052-1.596-4.95 4.203-3.066-5.204-.008zm16.725 0l-1.617 4.946-5.198.008 4.206 3.065-1.607 4.951 4.216-3.052 4.216 3.052-1.598-4.95 4.197-3.066-5.198-.008z"/></g></svg>